<svg xmlns="http://www.w3.org/2000/svg" viewBox="0 0 1200 1800" style="background-color:#0f172a; font-family:'Arial', sans-serif;">
  <!-- 背景裝飾 -->
  <defs>
    <linearGradient id="grad1" x1="0%" y1="0%" x2="100%" y2="100%">
      <stop offset="0%" style="stop-color:#1e3a8a;stop-opacity:1" />
      <stop offset="100%" style="stop-color:#0c4a6e;stop-opacity:1" />
    </linearGradient>
    <linearGradient id="grad2" x1="0%" y1="0%" x2="0%" y2="100%">
      <stop offset="0%" style="stop-color:#dc2626;stop-opacity:0.7" />
      <stop offset="100%" style="stop-color:#ea580c;stop-opacity:0.7" />
    </linearGradient>
    <filter id="shadow" x="-20%" y="-20%" width="140%" height="140%">
      <feDropShadow dx="0" dy="4" stdDeviation="8" flood-color="#000" flood-opacity="0.3"/>
    </filter>
  </defs>
  
  <!-- 背景矩形 -->
  <rect width="100%" height="100%" fill="url(#grad1)"/>
  
  <!-- 頂部裝飾 -->
  <rect x="0" y="0" width="1200" height="100" fill="url(#grad2)" filter="url(#shadow)"/>
  
  <!-- 標題 -->
  <text x="600" y="80" text-anchor="middle" fill="white" font-size="52" font-weight="bold" font-family="'Arial Black', sans-serif">🔥 本週科技家電超值優惠 🔥</text>
  
  <!-- 零售商標誌區域 -->
  <rect x="50" y="120" width="1100" height="80" rx="10" fill="rgba(255,255,255,0.1)" stroke="#3b82f6" stroke-width="2"/>
  <text x="600" y="170" text-anchor="middle" fill="#60a5fa" font-size="36" font-weight="bold">JB Hi-Fi • The Good Guys • Harvey Norman</text>
  
  <!-- 限時優惠標籤 -->
  <rect x="400" y="210" width="400" height="50" rx="25" fill="#dc2626" filter="url(#shadow)"/>
  <text x="600" y="245" text-anchor="middle" fill="white" font-size="28" font-weight="bold">📅 限時優惠，數量有限！</text>
  
  <!-- 分隔線 -->
  <line x1="100" y1="280" x2="1100" y2="280" stroke="#3b82f6" stroke-width="3" stroke-dasharray="10,5"/>
  
  <!-- 主要內容區域 -->
  <text x="600" y="330" text-anchor="middle" fill="#fbbf24" font-size="42" font-weight="bold">🏆 十大必買好物推薦</text>
  
  <!-- 產品類別標籤 -->
  <g id="categories">
    <rect x="50" y="360" width="250" height="50" rx="10" fill="#1e40af"/>
    <text x="175" y="392" text-anchor="middle" fill="white" font-size="24" font-weight="bold">💻 平板電腦</text>
    
    <rect x="320" y="360" width="250" height="50" rx="10" fill="#1e40af"/>
    <text x="445" y="392" text-anchor="middle" fill="white" font-size="24" font-weight="bold">📱 音響耳機</text>
    
    <rect x="590" y="360" width="250" height="50" rx="10" fill="#1e40af"/>
    <text x="715" y="392" text-anchor="middle" fill="white" font-size="24" font-weight="bold">🎮 遊戲筆電</text>
    
    <rect x="860" y="360" width="290" height="50" rx="10" fill="#1e40af"/>
    <text x="1005" y="392" text-anchor="middle" fill="white" font-size="24" font-weight="bold">📺 大螢幕電視</text>
  </g>
  
  <!-- 產品項目1 -->
  <g id="product1" transform="translate(0, 0)">
    <rect x="50" y="430" width="1100" height="100" rx="15" fill="rgba(30, 64, 175, 0.3)" stroke="#60a5fa" stroke-width="2"/>
    <text x="80" y="475" fill="white" font-size="28" font-weight="bold">1️⃣ Samsung Galaxy S10 Ultra 平板電腦</text>
    <text x="80" y="515" fill="#fbbf24" font-size="24">💰 $1,049 - 半價優惠！節省 $1,050</text>
    <text x="1000" y="490" fill="#60a5fa" font-size="24" font-weight="bold">🏪 JB Hi-Fi</text>
  </g>
  
  <!-- 產品項目2 -->
  <g id="product2" transform="translate(0, 110)">
    <rect x="50" y="540" width="1100" height="100" rx="15" fill="rgba(30, 64, 175, 0.3)" stroke="#60a5fa" stroke-width="2"/>
    <text x="80" y="585" fill="white" font-size="28" font-weight="bold">2️⃣ Sennheiser Momentum True Wireless 4 耳機</text>
    <text x="80" y="625" fill="#fbbf24" font-size="24">💰 $299 - 節省 $200</text>
    <text x="1000" y="600" fill="#60a5fa" font-size="24" font-weight="bold">🏪 JB Hi-Fi</text>
  </g>
  
  <!-- 產品項目3 -->
  <g id="product3" transform="translate(0, 220)">
    <rect x="50" y="650" width="1100" height="100" rx="15" fill="rgba(30, 64, 175, 0.3)" stroke="#60a5fa" stroke-width="2"/>
    <text x="80" y="695" fill="white" font-size="28" font-weight="bold">3️⃣ Lenovo Legion Pro 7 遊戲筆電 (RTX 5080)</text>
    <text x="80" y="735" fill="#fbbf24" font-size="24">💰 $4,799 - 節省 $1,200</text>
    <text x="1000" y="710" fill="#60a5fa" font-size="24" font-weight="bold">🏪 JB Hi-Fi</text>
  </g>
  
  <!-- 更多產品提示 -->
  <rect x="350" y="770" width="500" height="50" rx="25" fill="rgba(59, 130, 246, 0.5)"/>
  <text x="600" y="805" text-anchor="middle" fill="#93c5fd" font-size="24">還有7項超值優惠！查看完整列表</text>
  
  <!-- 最佳購買時機 -->
  <rect x="50" y="850" width="1100" height="150" rx="15" fill="rgba(220, 38, 38, 0.2)" stroke="#f87171" stroke-width="2"/>
  <text x="600" y="890" text-anchor="middle" fill="#fbbf24" font-size="36" font-weight="bold">💡 為什麼現在是最佳購買時機？</text>
  
  <g id="reasons">
    <circle cx="150" cy="950" r="15" fill="#10b981"/>
    <text x="175" y="957" fill="white" font-size="22">半價優惠 - Samsung 平板電腦直接半價！</text>
    
    <circle cx="150" cy="990" r="15" fill="#10b981"/>
    <text x="175" y="997" fill="white" font-size="22">高階遊戲筆電 - RTX 5080/4050 顯卡大降價</text>
    
    <circle cx="650" cy="950" r="15" fill="#10b981"/>
    <text x="675" y="957" fill="white" font-size="22">Apple 產品折扣 - MacBook Air M3 罕見降價</text>
    
    <circle cx="650" cy="990" r="15" fill="#10b981"/>
    <text x="675" y="997" fill="white" font-size="22">生活必需品 - Dyson 吸塵器、Ninja 廚房電器</text>
  </g>
  
  <!-- 總節省金額 -->
  <rect x="50" y="1030" width="1100" height="100" rx="15" fill="rgba(245, 158, 11, 0.2)" stroke="#f59e0b" stroke-width="2"/>
  <text x="600" y="1075" text-anchor="middle" fill="#fde047" font-size="40" font-weight="bold">💰 總節省金額：超過 $4,500！</text>
  
  <!-- 最超值推薦 -->
  <g id="topPicks">
    <rect x="50" y="1160" width="350" height="150" rx="15" fill="rgba(30, 64, 175, 0.5)" filter="url(#shadow)"/>
    <circle cx="225" cy="1220" r="40" fill="#fbbf24"/>
    <text x="225" y="1228" text-anchor="middle" fill="#1e3a8a" font-size="28" font-weight="bold">🥇</text>
    <text x="225" y="1280" text-anchor="middle" fill="white" font-size="20" font-weight="bold">Samsung Tab S10 Ultra</text>
    <text x="225" y="1310" text-anchor="middle" fill="#fbbf24" font-size="24" font-weight="bold">半價！</text>
    
    <rect x="425" y="1160" width="350" height="150" rx="15" fill="rgba(30, 64, 175, 0.5)" filter="url(#shadow)"/>
    <circle cx="600" cy="1220" r="40" fill="#cbd5e1"/>
    <text x="600" y="1228" text-anchor="middle" fill="#1e3a8a" font-size="28" font-weight="bold">🥈</text>
    <text x="600" y="1280" text-anchor="middle" fill="white" font-size="20" font-weight="bold">Lenovo Legion Pro 7</text>
    <text x="600" y="1310" text-anchor="middle" fill="#fbbf24" font-size="24" font-weight="bold">省 $1,200</text>
    
    <rect x="800" y="1160" width="350" height="150" rx="15" fill="rgba(30, 64, 175, 0.5)" filter="url(#shadow)"/>
    <circle cx="975" cy="1220" r="40" fill="#f97316"/>
    <text x="975" y="1228" text-anchor="middle" fill="#1e3a8a" font-size="28" font-weight="bold">🥉</text>
    <text x="975" y="1280" text-anchor="middle" fill="white" font-size="20" font-weight="bold">MacBook Air M3</text>
    <text x="975" y="1310" text-anchor="middle" fill="#fbbf24" font-size="24" font-weight="bold">省 $700</text>
  </g>
  
  <!-- 實惠小家電 -->
  <rect x="50" y="1340" width="1100" height="120" rx="15" fill="rgba(59, 130, 246, 0.2)" stroke="#60a5fa" stroke-width="2"/>
  <text x="600" y="1370" text-anchor="middle" fill="#fbbf24" font-size="32" font-weight="bold">🔥 最實惠小家電</text>
  <text x="600" y="1410" text-anchor="middle" fill="white" font-size="26">Ninja 氣炸鍋 - 只需 $149 • Ninja 雪糕機 - 只需 $299</text>
  
  <!-- 適用地區 -->
  <rect x="50" y="1480" width="1100" height="80" rx="10" fill="rgba(255,255,255,0.05)"/>
  <text x="600" y="1510" text-anchor="middle" fill="#60a5fa" font-size="24" font-weight="bold">📍 適用地區：澳洲全國</text>
  <text x="600" y="1545" text-anchor="middle" fill="#93c5fd" font-size="22">三大零售商：JB Hi-Fi、The Good Guys、Harvey Norman</text>
  
  <!-- 底部標籤 -->
  <rect x="0" y="1580" width="1200" height="220" fill="rgba(0,0,0,0.3)"/>
  <text x="600" y="1620" text-anchor="middle" fill="#93c5fd" font-size="20">#澳洲購物 #科技優惠 #家電特價 #JBHiFi #TheGoodGuys #HarveyNorman</text>
  <text x="600" y="1655" text-anchor="middle" fill="#93c5fd" font-size="20">#筆電優惠 #遊戲筆電 #Samsung #Apple #Dyson #Ninja</text>
  <text x="600" y="1690" text-anchor="middle" fill="#93c5fd" font-size="20">#平板電腦 #氣炸鍋 #智能家電 #澳洲生活 #限時特價</text>
  <text x="600" y="1725" text-anchor="middle" fill="#93c5fd" font-size="20">#Brisbane #Sydney #Melbourne #Australia #TechDeals #HomeAppliances</text>
  
  <!-- 網址 -->
  <rect x="350" y="1750" width="500" height="40" rx="20" fill="#3b82f6"/>
  <text x="600" y="1778" text-anchor="middle" fill="white" font-size="22" font-weight="bold">www.michaelleung.info/prices/gooddeals.html</text>
</svg>